<?xml version="1.0" encoding="UTF-8"?>
<svg width="112px" height="110px" viewBox="0 0 112 110" version="1.1" xmlns="http://www.w3.org/2000/svg" xmlns:xlink="http://www.w3.org/1999/xlink">
    <!-- Generator: Sketch 53.2 (72643) - https://sketchapp.com -->
    <title>g63818</title>
    <desc>Created with Sketch.</desc>
    <g id="Page-1" stroke="none" stroke-width="1" fill="none" fill-rule="evenodd">
        <g id="chessGame" transform="translate(-769.000000, -1070.000000)">
            <g id="g63818" transform="translate(768.624230, 1067.660500)">
                <g id="g63820" transform="translate(0.747846, 0.501168)" fill-rule="nonzero">
                    <path d="M9.5161115,97.7459248 C17.9562808,93.637946 44.0658128,98.168707 55.6279225,90.0792514 C67.1900321,98.172036 93.6274704,93.2850727 101.234211,97.7459248 C108.75556,102.156842 107.867481,100.748677 109.964714,106.36469 C107.652292,109.600473 106.364577,111.667778 101.739733,110.049887 C90.1776238,106.814105 67.1900321,111.574566 55.6279225,106.720893 C44.0658128,111.577895 21.0782211,106.814105 9.5161115,110.049887 C4.89126765,111.667778 3.60355263,109.350798 1.29113071,106.111687 C5.91255887,99.6367934 1.48582502,101.650835 9.5161115,97.7459248 L9.5161115,97.7459248 Z" id="path63822" stroke="#FFFFFF" stroke-width="1.50014156" fill="#FFFFFF" stroke-linejoin="round"></path>
                    <path d="M30.0102497,88.4080963 C38.549474,96.7305816 72.706371,96.7305816 81.2455952,88.4080963 C82.9534401,83.4146052 81.2455952,81.7501081 81.2455952,81.7501081 C81.2455952,73.4276229 74.1990274,68.4341317 74.1990274,68.4341317 C92.9853207,63.4406406 93.2005092,30.1506996 55.6245068,16.8347232 C18.0519201,30.1506996 19.0014818,63.9466477 37.7877752,68.9401388 C37.7877752,68.9401388 29.754073,72.1659341 29.754073,80.4884193 C29.7574887,80.4884193 28.3024049,83.4146052 30.0102497,88.4080963 L30.0102497,88.4080963 Z" id="path63824" stroke="#FFFFFF" stroke-width="1.50014156" fill="#FFFFFF" stroke-linejoin="round"></path>
                    <path d="M65.9603838,12.7899953 C65.9603838,18.2362297 61.1715868,22.6504759 55.2624437,22.6504759 C49.3533005,22.6504759 44.5645035,18.2362297 44.5645035,12.7899953 C44.5645035,7.34376098 49.3533005,2.92951481 55.2624437,2.92951481 C61.1681711,2.92951481 65.9603838,7.34376098 65.9603838,12.7899953 Z" id="path63826" stroke="#FFFFFF" stroke-width="1.23134374" fill="#FFFFFF" stroke-linejoin="round"></path>
                    <path d="M38.549474,68.4341317 L72.706371,68.4341317" id="path63828" stroke="#FF78FF" stroke-width="1.50014156" fill="#FF8BFF" stroke-linecap="round"></path>
                    <path d="M55.6279225,33.4796937 L55.6279225,50.1246642" id="path63830" stroke="#FF78FF" stroke-width="1.50014156" fill="#FF8BFF" stroke-linecap="round"></path>
                    <path d="M47.0886982,41.8021789 L64.1671467,41.8021789" id="path63832" stroke="#FF78FF" stroke-width="1.50014156" fill="#FF8BFF" stroke-linecap="round"></path>
                </g>
                <g id="g63834" transform="translate(3.123623, 5.728002)" stroke-width="1.49995539">
                    <path d="M11.612529,93.7353698 C21.9950992,90.7537034 42.6344831,95.0574873 53.0201205,87.6002538 C63.4026907,95.0574873 84.0451418,90.7537034 94.427712,93.7353698 C94.427712,93.7353698 99.4763709,95.3979862 103.629399,99.8704858 C101.552885,102.852152 98.5807401,102.895098 94.427712,101.404265 C84.0451418,98.4195309 63.4026907,102.809206 53.0201205,98.3367068 C42.6375503,102.809206 21.9950992,98.4195309 11.612529,101.404265 C7.45950093,102.895098 4.48735603,102.852152 2.41084199,99.8704858 C6.56387006,93.9071531 11.612529,93.7353698 11.612529,93.7353698 Z" id="path63836" stroke="#000000" fill="#000000" fill-rule="nonzero" stroke-linejoin="round"></path>
                    <path d="M30.0128358,81.4651378 C37.6809083,89.1340328 68.3531983,89.1340328 76.0212708,81.4651378 C77.5548853,76.8638008 76.0212708,75.3300218 76.0212708,75.3300218 C76.0212708,67.6611268 68.3531983,63.0597898 68.3531983,63.0597898 C85.2229578,58.4584528 86.7565723,27.7828728 53.0170533,15.5126408 C19.2775343,27.7828728 20.8111488,58.4584528 37.6809083,63.0597898 C37.6809083,63.0597898 30.0128358,67.6611268 30.0128358,75.3300218 C30.0128358,75.3300218 28.4822885,76.8638008 30.0128358,81.4651378 Z" id="path63838" stroke="#000000" fill="#000000" fill-rule="nonzero" stroke-linejoin="round"></path>
                    <path d="M60.688193,7.84374581 C60.688193,12.0800434 57.2559637,15.5126408 53.0201205,15.5126408 C48.7842772,15.5126408 45.352048,12.0800434 45.352048,7.84374581 C45.352048,3.60744821 48.7842772,0.174850806 53.0201205,0.174850806 C57.2528965,0.174850806 60.688193,3.61051577 60.688193,7.84374581 Z" id="path63840" stroke="#000000" fill="#000000" fill-rule="nonzero" stroke-linejoin="round"></path>
                    <path d="M37.6839755,63.0597898 L68.3562655,63.0597898" id="path63842" stroke="#FFFFFF" stroke-linecap="round"></path>
                    <path d="M30.0128358,75.3300218 L76.0212708,75.3300218" id="path63844" stroke="#FFFFFF" stroke-linecap="round"></path>
                    <path d="M53.0201205,30.8504308 L53.0201205,46.1882208" id="path63846" stroke="#FFFFFF" stroke-linecap="round"></path>
                    <path d="M45.352048,38.5193258 L60.688193,38.5193258" id="path63848" stroke="#FFFFFF" stroke-linecap="round"></path>
                </g>
            </g>
        </g>
    </g>
</svg>