<?xml version="1.0" encoding="UTF-8"?>
<svg width="108px" height="108px" viewBox="0 0 108 108" version="1.1" xmlns="http://www.w3.org/2000/svg" xmlns:xlink="http://www.w3.org/1999/xlink">
    <!-- Generator: Sketch 53.2 (72643) - https://sketchapp.com -->
    <title>g3388</title>
    <desc>Created with Sketch.</desc>
    <g id="Page-1" stroke="none" stroke-width="1" fill="none" fill-rule="evenodd">
        <g id="chessGame" transform="translate(-771.000000, -21.000000)" stroke="#000000" stroke-width="4.99985141">
            <g id="g3388" transform="translate(771.979880, 21.099858)">
                <path d="M11.612529,96.364267 C21.9950992,93.3826006 42.6344831,97.6863845 53.0201205,90.229151 C63.4026907,97.6863845 84.0451418,93.3826006 94.427712,96.364267 C94.427712,96.364267 99.4763709,98.0268834 103.629399,102.499383 C101.552885,105.481049 98.5807401,105.523995 94.427712,104.033162 C84.0451418,101.051496 63.4057579,105.438104 53.0201205,100.965604 C42.6375503,105.438104 21.9950992,101.051496 11.612529,104.033162 C7.45950093,105.523995 4.48735603,105.481049 2.41084199,102.499383 C6.56387006,96.5360503 11.612529,96.364267 11.612529,96.364267 Z" id="path3390" fill="#FFFFFF" fill-rule="nonzero" stroke-linejoin="round"></path>
                <path d="M30.015903,84.094035 C37.6839755,91.76293 68.3562655,91.76293 76.024338,84.094035 C77.5579525,79.492698 76.024338,77.958919 76.024338,77.958919 C76.024338,70.290024 68.3562655,65.688687 68.3562655,65.688687 C85.226025,61.08735 86.7596395,30.41177 53.0201205,18.141538 C19.2806015,30.41177 20.814216,61.08735 37.6839755,65.688687 C37.6839755,65.688687 30.015903,70.290024 30.015903,77.958919 C30.015903,77.958919 28.4822885,79.492698 30.015903,84.094035 Z" id="path3392" fill="#FFFFFF" fill-rule="nonzero" stroke-linejoin="round"></path>
                <path d="M60.688193,10.472643 C60.688193,14.7089406 57.2559637,18.141538 53.0201205,18.141538 C48.7842772,18.141538 45.352048,14.7089406 45.352048,10.472643 C45.352048,6.23634541 48.7842772,2.80374801 53.0201205,2.80374801 C57.2559637,2.80374801 60.688193,6.23941297 60.688193,10.472643 Z" id="path3394" fill="#FFFFFF" fill-rule="nonzero" stroke-linejoin="round"></path>
                <path d="M37.6839755,65.688687 L68.3562655,65.688687" id="path3396"></path>
                <path d="M30.015903,77.958919 L76.024338,77.958919" id="path3398"></path>
                <path d="M53.0201205,33.479328 L53.0201205,48.817118" id="path3400" stroke-linecap="round"></path>
                <path d="M45.352048,41.148223 L60.688193,41.148223" id="path3402" stroke-linecap="round"></path>
            </g>
        </g>
    </g>
</svg>