<?xml version="1.0" encoding="UTF-8"?>
<svg width="114px" height="114px" viewBox="0 0 114 114" version="1.1" xmlns="http://www.w3.org/2000/svg" xmlns:xlink="http://www.w3.org/1999/xlink">
    <!-- Generator: Sketch 53.2 (72643) - https://sketchapp.com -->
    <title>g70004</title>
    <desc>Created with Sketch.</desc>
    <g id="Page-1" stroke="none" stroke-width="1" fill="none" fill-rule="evenodd">
        <g id="chessGame" transform="translate(-468.000000, -1068.000000)">
            <g id="g70004" transform="translate(468.295350, 1068.250800)">
                <g id="g67079" transform="translate(0.468986, 0.471814)" fill="#FFFFFF" fill-rule="nonzero" stroke="#FFFFFF">
                    <path d="M56.5997253,23.5738211 L56.5997253,2.88696561" id="path67081" stroke-width="5.99993853" stroke-linecap="round"></path>
                    <path d="M56.5997253,66.0066991 C56.5997253,66.0066991 74.1595777,38.1704664 68.6433937,27.1374768 C68.6433937,27.1374768 63.9546373,18.1970775 56.5997253,18.1970775 C49.2448133,18.1970775 44.5560569,27.6449943 44.5560569,27.6449943 C39.0398729,38.6743062 56.5997253,66.0066991 56.5997253,66.0066991" id="path67083" stroke-width="1.5000766"></path>
                    <path d="M17.4090767,102.389821 C37.6350847,115.261642 73.1482773,115.007884 93.3742853,102.136062 L93.1205408,78.9189746 C93.1205408,78.9189746 120.157197,65.6499658 109.124829,43.5876642 C94.4150053,19.6828534 59.4791733,30.715843 50.2855333,58.298317 L56.5997253,65.3631081 L56.5997253,52.4912869 C43.2248178,29.9582444 17.1259126,21.4518094 3.56713232,42.072467 C-7.46523568,64.1384462 16.9052652,78.849099 16.9052652,78.849099 L17.4090767,102.389821 L17.4090767,102.389821 Z" id="path67085" stroke-width="1.5000766" stroke-linecap="round" stroke-linejoin="round"></path>
                    <path d="M47.4060853,10.242292 L65.7933653,10.242292" id="path67087" stroke-width="5.99993853" stroke-linecap="round"></path>
                </g>
                <g id="g67061" transform="translate(4.594094, 4.825562)" stroke-width="1.49995539">
                    <path d="M52.5569689,17.350108 L52.5569689,0.095094298" id="path67063" stroke="#000000" stroke-linecap="round"></path>
                    <path d="M52.5569689,58.3786963 C52.5569689,58.3786963 66.3594994,35.3720113 61.7586559,26.1693373 C61.7586559,26.1693373 58.6914269,18.5004423 52.5569689,18.5004423 C46.4225109,18.5004423 43.3552819,26.1693373 43.3552819,26.1693373 C38.7544384,35.3720113 52.5569689,58.3786963 52.5569689,58.3786963" id="path67065" stroke="#000000" fill="#000000" fill-rule="nonzero"></path>
                    <path d="M18.8174499,95.1893923 C35.6872094,105.925845 66.3594994,105.925845 83.2292589,95.1893923 L83.2292589,73.7164863 C83.2292589,73.7164863 110.83432,59.9124753 101.632633,41.5071273 C89.3637169,21.5680003 60.2250414,30.7706743 52.5569689,53.7773593 L52.5569689,64.5138123 L52.5569689,53.7773593 C41.8216674,30.7706743 12.6829919,21.5680003 3.48130491,41.5071273 C-5.72038209,59.9124753 18.8174499,72.1827073 18.8174499,72.1827073 L18.8174499,95.1893923 Z" id="path67067" stroke="#000000" fill="#000000" fill-rule="nonzero" stroke-linecap="round" stroke-linejoin="round"></path>
                    <path d="M44.8888964,6.2302103 L60.2250414,6.2302103" id="path67069" stroke="#000000" stroke-linecap="round"></path>
                    <path d="M18.8174499,72.1827073 C35.6872094,64.5138123 66.3594994,64.5138123 83.2292589,73.7164863" id="path67071" stroke="#FFFFFF" stroke-linecap="round"></path>
                    <path d="M18.8174499,95.1893923 C35.6872094,87.5204973 66.3594994,87.5204973 83.2292589,95.1893923" id="path67073" stroke="#FFFFFF" stroke-linecap="round" stroke-linejoin="round"></path>
                    <path d="M18.8174499,84.4529393 C35.6872094,78.3178233 66.3594994,78.3178233 83.2292589,84.4529393" id="path67075" stroke="#FFFFFF" stroke-linecap="round" stroke-linejoin="round"></path>
                    <path d="M81.6956444,72.1827073 C81.6956444,72.1827073 107.767091,59.9124753 100.178766,42.5715699 C88.2809851,24.6263556 60.2250414,36.9057903 52.5569689,56.8449173 L52.5937757,63.2775864 L52.5569689,56.8449173 C44.8888964,36.9057903 13.9313541,24.6263556 5.00571773,42.5715699 C-2.65315309,59.9124753 19.8756439,70.1795919 19.8756439,70.1795919" id="path67077" stroke="#FFFFFF" stroke-linecap="round" stroke-linejoin="round"></path>
                </g>
            </g>
        </g>
    </g>
</svg>