<?xml version="1.0" encoding="UTF-8"?>
<svg width="104px" height="106px" viewBox="0 0 104 106" version="1.1" xmlns="http://www.w3.org/2000/svg" xmlns:xlink="http://www.w3.org/1999/xlink">
    <!-- Generator: Sketch 53.2 (72643) - https://sketchapp.com -->
    <title>g49858</title>
    <desc>Created with Sketch.</desc>
    <g id="Page-1" stroke="none" stroke-width="1" fill="none" fill-rule="evenodd">
        <g id="chessGame" transform="translate(-923.000000, -1072.000000)" fill-rule="nonzero">
            <g id="g49858" transform="translate(922.143600, 1071.999000)">
                <path d="M51.714,10.494 C89.245,14.655 106.356,36.643 104.721,105.285 L28.836,105.285 C27.942,68.367 59.555,83.86 53.018,36.465" id="path48825" fill="#FFFFFF"></path>
                <path d="M61.853,37.379 C63.223,47.09 45.267,61.957 36.541,67.399 C25.845,74.07 26.489,81.885 18.713,80.742 C14.595,75.409 19.148,74.838 15.148,77.406 C11.583,77.406 0.875,80.742 0.885,64.064 C0.885,57.392 19.78,24.038 19.78,24.038 C19.78,24.038 25.075,17.693 25.482,12.363 C22.893,9.047 24.414,5.692 24.414,2.356 C27.979,-0.979 37.075,10.695 37.075,10.695 L41.349,10.695 C41.349,10.695 45.03,4.051 51.156,0.689 C54.721,0.689 54.721,10.695 54.721,10.695" id="path48827" fill="#FFFFFF"></path>
                <path d="M10.861,61.158 C10.861,62.06 10.129,62.793 9.226,62.793 C8.323,62.793 7.592,62.061 7.592,61.158 C7.592,60.255 8.323,59.524 9.226,59.524 C10.129,59.524 10.861,60.256 10.861,61.158 Z" id="path48829" fill="#F2F2F2"></path>
                <path d="M28.618,29.289 C27.264,31.634 25.533,33.169 24.751,32.718 C23.97,32.267 24.434,30 25.787,27.655 C27.141,25.31 28.872,23.775 29.653,24.226 C30.435,24.677 29.971,26.943 28.618,29.289 L28.618,29.289 Z" id="path48831" fill="#F2F2F2"></path>
                <path d="M60.048,11.802 L59.068,15.398 L60.866,15.724 C71.003,17.284 81.533,23.027 88.891,36.951 C96.249,50.874 98.442,72.785 96.817,105.286 L96.654,105.313 L102.374,105.313 L102.374,105.286 C104.017,72.414 99.509,50.198 91.752,35.52 C83.994,20.842 72.831,13.837 61.724,12.128 L60.048,11.802 L60.048,11.802 Z" id="path48833" fill="#FFFFFF"></path>
                <path d="M52.819,13.39 C85.025,16.457 103.428,37.931 101.895,102.35 L31.348,102.35 C31.348,74.742 62.021,82.411 55.886,37.931" id="path48837" stroke="#000000" fill="#000000" stroke-linecap="round"></path>
                <path d="M58.954,37.931 C60.134,46.862 41.922,60.535 34.416,65.538 C25.215,71.674 25.77,78.86 19.08,77.809 C15.885,74.913 23.415,68.491 19.08,68.606 C16.013,68.606 19.655,72.385 16.013,74.742 C12.946,74.742 3.735,77.809 3.744,62.471 C3.744,56.336 22.147,25.66 22.147,25.66 C22.147,25.66 27.931,19.825 28.282,14.924 C26.054,11.873 26.748,8.789 26.748,5.721 C29.815,2.654 35.95,13.39 35.95,13.39 L42.084,13.39 C42.084,13.39 44.482,7.28 49.753,4.188 C52.819,4.188 52.819,13.39 52.819,13.39" id="path48839" stroke="#000000" fill="#000000" stroke-linecap="round" stroke-linejoin="round"></path>
                <path d="M14.479,60.938 C14.479,61.785 13.792,62.471 12.945,62.471 C12.098,62.471 11.412,61.784 11.412,60.938 C11.412,60.09 12.099,59.404 12.945,59.404 C13.792,59.404 14.479,60.091 14.479,60.938 Z" id="path48841" stroke="#FFFFFF" stroke-width="0.32600001" fill="#FFFFFF" stroke-linecap="round" stroke-linejoin="round"></path>
                <path d="M31.143,31.029 C29.872,33.23 28.248,34.671 27.514,34.247 C26.781,33.824 27.216,31.696 28.487,29.496 C29.758,27.295 31.383,25.854 32.116,26.277 C32.849,26.701 32.414,28.829 31.143,31.029 Z" id="path48843" stroke="#FFFFFF" stroke-width="0.32600001" fill="#FFFFFF" stroke-linecap="round" stroke-linejoin="round"></path>
                <path d="M59.712,14.618 L58.791,17.992 L60.479,18.299 C69.992,19.763 79.875,25.153 86.781,38.219 C93.686,51.285 96.673,70.885 95.147,101.386 L94.994,102.92 L100.361,102.92 L100.361,101.386 C101.904,70.536 96.745,50.652 89.465,36.877 C82.185,23.102 71.709,16.528 61.284,14.925 L59.712,14.618 L59.712,14.618 Z" id="path48845" fill="#FFFFFF"></path>
            </g>
        </g>
    </g>
</svg>