<?xml version="1.0" encoding="UTF-8"?>
<svg width="104px" height="106px" viewBox="0 0 104 106" version="1.1" xmlns="http://www.w3.org/2000/svg" xmlns:xlink="http://www.w3.org/1999/xlink">
    <!-- Generator: Sketch 53.2 (72643) - https://sketchapp.com -->
    <title>g60695</title>
    <desc>Created with Sketch.</desc>
    <g id="Page-1" stroke="none" stroke-width="1" fill="none" fill-rule="evenodd">
        <g id="chessGame" transform="translate(-923.000000, -22.000000)" fill-rule="nonzero">
            <g id="g60695" transform="translate(923.009660, 22.202000)">
                <path d="M50.847,10.29 C88.378,14.452 105.489,36.439 103.855,105.082 L27.969,105.082 C27.076,68.164 58.688,83.657 52.152,36.261" id="path60697" fill="#000000"></path>
                <path d="M60.986,37.176 C62.357,46.886 44.4,61.754 35.675,67.196 C24.978,73.867 25.622,81.681 17.847,80.538 C13.728,75.205 18.281,74.634 14.281,77.203 C10.716,77.203 0.008,80.538 0.019,63.861 C0.019,57.19 18.913,23.835 18.913,23.835 C18.913,23.835 24.209,17.49 24.615,12.161 C22.027,8.844 23.547,5.49 23.547,2.155 C27.112,-1.181 36.208,10.494 36.208,10.494 L40.482,10.494 C40.482,10.494 44.163,3.849 50.289,0.487 C53.855,0.487 53.855,10.494 53.855,10.494" id="path60699" fill="#000000"></path>
                <path d="M9.993,60.955 C9.993,61.857 9.262,62.589 8.358,62.589 C7.456,62.589 6.724,61.857 6.724,60.955 C6.724,60.052 7.455,59.321 8.358,59.321 C9.262,59.321 9.993,60.052 9.993,60.955 Z" id="path60701" fill="#F2F2F2"></path>
                <path d="M27.75,29.085 C26.396,31.43 24.665,32.965 23.884,32.514 C23.102,32.062 23.566,29.796 24.919,27.451 C26.273,25.106 28.004,23.571 28.786,24.022 C29.568,24.473 29.104,26.74 27.75,29.085 L27.75,29.085 Z" id="path60703" fill="#F2F2F2"></path>
                <path d="M59.181,11.598 L58.201,15.194 L59.999,15.521 C70.136,17.081 80.666,22.824 88.024,36.747 C95.383,50.67 97.575,72.582 95.95,105.082 L95.787,105.109 L101.507,105.109 L101.507,105.082 C103.151,72.209 98.642,49.994 90.885,35.316 C83.127,20.638 71.965,13.634 60.858,11.925 L59.181,11.598 L59.181,11.598 Z" id="path60705" fill="#000000"></path>
                <path d="M51.952,13.187 C84.157,16.255 102.561,37.728 101.027,102.146 L30.481,102.146 C30.481,74.538 61.153,82.207 55.018,37.727" id="path60707" stroke="#000000" fill="#FFFFFF" stroke-linecap="round"></path>
                <path d="M58.086,37.728 C59.266,46.659 41.054,60.332 33.548,65.336 C24.347,71.471 24.902,78.658 18.212,77.607 C15.017,74.711 22.548,68.289 18.212,68.404 C15.145,68.404 18.787,72.182 15.145,74.539 C12.079,74.539 2.867,77.607 2.876,62.269 C2.876,56.134 21.279,25.458 21.279,25.458 C21.279,25.458 27.063,19.623 27.414,14.721 C25.186,11.671 25.88,8.586 25.88,5.518 C28.947,2.451 35.082,13.187 35.082,13.187 L41.217,13.187 C41.217,13.187 43.614,7.077 48.885,3.984 C51.952,3.984 51.952,13.187 51.952,13.187" id="path60709" stroke="#000000" fill="#FFFFFF" stroke-linecap="round" stroke-linejoin="round"></path>
                <path d="M13.612,60.735 C13.612,61.582 12.925,62.269 12.079,62.269 C11.231,62.269 10.545,61.582 10.545,60.735 C10.545,59.888 11.232,59.201 12.079,59.201 C12.925,59.201 13.612,59.887 13.612,60.735 Z" id="path60711" stroke="#000000" stroke-width="0.32600001" fill="#000000" stroke-linecap="round" stroke-linejoin="round"></path>
                <path d="M30.276,30.826 C29.005,33.027 27.381,34.468 26.648,34.044 C25.914,33.621 26.349,31.493 27.62,29.293 C28.891,27.093 30.516,25.651 31.249,26.075 C31.982,26.498 31.546,28.625 30.276,30.826 Z" id="path60713" stroke="#000000" stroke-width="0.32600001" fill="#000000" stroke-linecap="round" stroke-linejoin="round"></path>
                <path d="M58.845,14.414 L57.925,17.789 L59.612,18.096 C69.125,19.56 79.008,24.95 85.914,38.016 C92.819,51.082 95.806,70.682 94.28,101.183 L94.127,102.717 L99.495,102.717 L99.495,101.183 C101.037,70.333 95.878,50.449 88.598,36.674 C81.318,22.9 70.842,16.326 60.418,14.722 L58.845,14.414 Z" id="path60715" fill="#000000"></path>
            </g>
        </g>
    </g>
</svg>