<?xml version="1.0" encoding="UTF-8"?>
<svg width="76px" height="100px" viewBox="0 0 76 100" version="1.1" xmlns="http://www.w3.org/2000/svg" xmlns:xlink="http://www.w3.org/1999/xlink">
    <!-- Generator: Sketch 53.2 (72643) - https://sketchapp.com -->
    <title>path17054</title>
    <desc>Created with Sketch.</desc>
    <g id="Page-1" stroke="none" stroke-width="1" fill="none" fill-rule="evenodd" stroke-linecap="round">
        <g id="chessGame" transform="translate(-1087.000000, -925.000000)" fill="#000000" fill-rule="nonzero" stroke="#FFFFFF" stroke-width="5">
            <path d="M1125,928.2195 C1118.228,928.2195 1112.731,933.7165 1112.731,940.4895 C1112.731,943.2055 1113.632,945.7425 1115.127,947.7755 C1109.14,951.2165 1105.063,957.6325 1105.063,965.0305 C1105.063,971.2695 1107.953,976.8065 1112.444,980.4645 C1103.245,983.7095 1089.727,997.4795 1089.727,1021.7805 L1160.273,1021.7805 C1160.273,997.4785 1146.755,983.7095 1137.556,980.4645 C1142.047,976.8075 1144.937,971.2705 1144.937,965.0305 C1144.937,957.6335 1140.86,951.2175 1134.873,947.7755 C1136.367,945.7425 1137.269,943.2055 1137.269,940.4895 C1137.269,933.7165 1131.773,928.2195 1125,928.2195 L1125,928.2195 Z" id="path17054"></path>
        </g>
    </g>
</svg>