<?xml version="1.0" encoding="UTF-8"?>
<svg width="120px" height="112px" viewBox="0 0 120 112" version="1.1" xmlns="http://www.w3.org/2000/svg" xmlns:xlink="http://www.w3.org/1999/xlink">
    <!-- Generator: Sketch 53.2 (72643) - https://sketchapp.com -->
    <title>g67023</title>
    <desc>Created with Sketch.</desc>
    <g id="Page-1" stroke="none" stroke-width="1" fill="none" fill-rule="evenodd" stroke-linejoin="round">
        <g id="chessGame" transform="translate(-615.000000, -1069.000000)">
            <g id="g67023" transform="translate(615.173000, 1068.607550)">
                <path d="M17.813,23.529 C17.813,28.381 13.879,32.313 9.03,32.313 C4.178,32.313 0.247,28.38 0.247,23.529 C0.247,18.678 4.179,14.746 9.03,14.746 C13.879,14.745 17.813,18.678 17.813,23.529 Z" id="path67025" stroke="#FFFFFF" stroke-width="0.2277" fill="#FFFFFF" fill-rule="nonzero" stroke-linecap="round"></path>
                <path d="M42.635,12.514 C42.635,17.366 38.703,21.298 33.854,21.298 C29.002,21.298 25.071,17.365 25.071,12.514 C25.071,7.663 29.003,3.731 33.854,3.731 C38.703,3.731 42.635,7.663 42.635,12.514 Z" id="path67027" stroke="#FFFFFF" stroke-width="0.2277" fill="#FFFFFF" fill-rule="nonzero" stroke-linecap="round"></path>
                <path d="M68.647,9.737 C68.647,14.588 64.715,18.52 59.866,18.52 C55.014,18.52 51.083,14.587 51.083,9.737 C51.083,4.885 55.015,0.953 59.866,0.953 C64.715,0.952 68.647,4.885 68.647,9.737 Z" id="path67029" stroke="#FFFFFF" stroke-width="0.2277" fill="#FFFFFF" fill-rule="nonzero" stroke-linecap="round"></path>
                <path d="M94.911,14.787 C94.911,19.638 90.979,23.57 86.13,23.57 C81.278,23.57 77.347,19.637 77.347,14.787 C77.347,9.935 81.279,6.003 86.13,6.003 C90.979,6.003 94.911,9.936 94.911,14.787 Z" id="path67031" stroke="#FFFFFF" stroke-width="0.2277" fill="#FFFFFF" fill-rule="nonzero" stroke-linecap="round"></path>
                <path d="M14.186,63.802 C43.463,58.635 84.752,58.635 105.42,63.802 L111.045,18.928 L88.955,51.771 L87.943,9.351 L69.757,52.827 L59.675,3.427 L49.847,52.07 L31.659,8.387 L31.407,54.55 L9.315,20.949 L14.186,63.802 L14.186,63.802 Z" id="path67033" stroke="#FFFFFF" fill="#FFFFFF" fill-rule="nonzero"></path>
                <path d="M14.186,63.802 C14.186,70.692 18.342,71.449 21.788,78.339 C25.231,83.506 26.243,81.027 24.52,89.639 C19.352,93.083 19.352,98.25 19.352,98.25 C14.186,103.418 21.075,108.862 21.075,108.862 C43.464,112.307 75.889,112.307 98.278,108.862 C98.278,108.862 103.444,103.418 98.278,98.25 C98.278,98.25 100.001,93.083 94.835,89.639 C93.112,81.027 95.132,82.748 98.577,77.581 C102.02,70.691 105.167,70.691 105.167,63.802 C75.889,58.635 43.463,58.635 14.186,63.802 Z" id="path67035" stroke="#FFFFFF" fill="#FFFFFF" fill-rule="nonzero"></path>
                <path d="M119.407,23.373 C119.407,28.225 115.475,32.157 110.626,32.157 C105.774,32.157 101.843,28.224 101.843,23.373 C101.843,18.522 105.775,14.59 110.626,14.59 C115.475,14.59 119.407,18.522 119.407,23.373 Z" id="path67037" stroke="#FFFFFF" stroke-width="0.2277" fill="#FFFFFF" fill-rule="nonzero" stroke-linecap="round"></path>
                <g id="g67039" transform="translate(2.198138, 1.978926)" stroke-width="0.999970313">
                    <path d="M13.287236,21.6876351 C13.287236,25.0772867 10.5420661,27.8227511 7.15277803,27.8227511 C3.76348998,27.8227511 1.01832003,25.0772867 1.01832003,21.6876351 C1.01832003,18.2979835 3.76348998,15.5525191 7.15277803,15.5525191 C10.5420661,15.5525191 13.287236,18.2979835 13.287236,21.6876351 Z" id="path67041" stroke="#000000" fill="#000000" fill-rule="nonzero" stroke-linecap="round"></path>
                    <path d="M63.8965145,7.88362406 C63.8965145,11.2702081 61.1513446,14.0187401 57.7620565,14.0187401 C54.3727685,14.0187401 51.6275985,11.2702081 51.6275985,7.88362406 C51.6275985,4.49397247 54.3727685,1.74850806 57.7620565,1.74850806 C61.1513446,1.74850806 63.8965145,4.49397247 63.8965145,7.88362406 Z" id="path67043" stroke="#000000" fill="#000000" fill-rule="nonzero" stroke-linecap="round"></path>
                    <path d="M114.505793,21.6876351 C114.505793,25.0772867 111.760623,27.8227511 108.371335,27.8227511 C104.982047,27.8227511 102.236877,25.0772867 102.236877,21.6876351 C102.236877,18.2979835 104.982047,15.5525191 108.371335,15.5525191 C111.760623,15.5525191 114.505793,18.2979835 114.505793,21.6876351 Z" id="path67045" stroke="#000000" fill="#000000" fill-rule="nonzero" stroke-linecap="round"></path>
                    <path d="M37.825068,10.9511821 C37.825068,14.3408337 35.0798981,17.0862981 31.69061,17.0862981 C28.3043892,17.0862981 25.556152,14.3408337 25.556152,10.9511821 C25.556152,7.56153047 28.3043892,4.81606606 31.69061,4.81606606 C35.0768308,4.81606606 37.825068,7.56153047 37.825068,10.9511821 Z" id="path67047" stroke="#000000" fill="#000000" fill-rule="nonzero" stroke-linecap="round"></path>
                    <path d="M89.9648938,12.4849611 C89.9648938,15.8746127 87.2197238,18.6200771 83.833503,18.6200771 C80.444215,18.6200771 77.699045,15.8715451 77.699045,12.4849611 C77.699045,9.09837703 80.444215,6.34984506 83.833503,6.34984506 C87.2197238,6.34984506 89.9648938,9.09530947 89.9648938,12.4849611 Z" id="path67049" stroke="#000000" fill="#000000" fill-rule="nonzero" stroke-linecap="round"></path>
                    <path d="M16.3513978,64.6334471 C42.4228443,60.0321101 80.7632068,60.0321101 99.1665808,64.6334471 L105.297972,27.8227511 L83.8304358,61.5658891 L83.8304358,18.6200771 L66.9606763,60.0321101 L57.7589893,14.0187401 L48.5573023,60.0321101 L31.6875428,17.0862981 L31.6875428,61.5658891 L10.2169398,27.8227511 L16.3513978,64.6334471 Z" id="path67051" stroke="#000000" fill="#000000" fill-rule="nonzero"></path>
                    <path d="M16.3513978,64.6334471 C16.3513978,70.7685631 20.9522413,70.7685631 24.0194703,76.9036791 C27.0866993,81.5050161 27.0866993,79.9712371 25.5530848,87.6401321 C20.9522413,90.7076901 20.9522413,95.3090271 20.9522413,95.3090271 C16.3513978,99.9103641 22.4858558,102.977922 22.4858558,102.977922 C42.4228443,106.04548 73.0951343,106.04548 93.0321228,102.977922 C93.0321228,102.977922 97.6329663,99.9103641 93.0321228,95.3090271 C93.0321228,95.3090271 94.5657373,90.7076901 89.9648938,87.6401321 C88.4312793,79.9712371 88.4312793,81.5050161 91.4985083,76.9036791 C94.5657373,70.7685631 99.1665808,70.7685631 99.1665808,64.6334471 C73.0982015,60.0321101 42.4259115,60.0321101 16.3513978,64.6334471 L16.3513978,64.6334471 Z" id="path67053" stroke="#000000" fill="#000000" fill-rule="nonzero"></path>
                    <path d="M24.0194703,76.9036791 C34.7547718,73.8361211 80.7632068,73.8361211 91.4985083,76.9036791" id="path67055" stroke="#FFFFFF" stroke-linecap="round"></path>
                    <path d="M25.5530848,87.6401321 C43.9564588,84.5725741 71.5615198,84.5725741 89.9648938,87.6401321" id="path67057" stroke="#FFFFFF" stroke-linecap="round"></path>
                    <path d="M20.9553085,95.3090271 C36.2914535,92.2414691 77.699045,92.2414691 93.03519,95.3090271" id="path67059" stroke="#FFFFFF" stroke-linecap="round"></path>
                </g>
            </g>
        </g>
    </g>
</svg>