<?xml version="1.0" encoding="UTF-8"?>
<svg width="124px" height="116px" viewBox="0 0 124 116" version="1.1" xmlns="http://www.w3.org/2000/svg" xmlns:xlink="http://www.w3.org/1999/xlink">
    <!-- Generator: Sketch 53.2 (72643) - https://sketchapp.com -->
    <title>g80246</title>
    <desc>Created with Sketch.</desc>
    <g id="Page-1" stroke="none" stroke-width="1" fill="none" fill-rule="evenodd" stroke-linejoin="round">
        <g id="chessGame" transform="translate(-613.000000, -17.000000)">
            <g id="g80246" transform="translate(613.663500, 17.022600)">
                <path d="M14.919,68.994 C44.197,63.827 87.001,65.973 107.668,71.14 C107.668,71.14 117.947,26.605 114.052,20.771 C110.156,14.937 92.087,47.805 92.087,47.805 L88.678,5.385 L72.511,45.198 C72.511,45.198 66.744,9.845 61.293,10.066 C55.843,10.287 50.707,46.082 50.707,46.082 C50.707,46.082 42.086,12.292 35.046,12.628 C27.879,12.964 30.626,48.436 30.626,48.436 C30.626,48.436 13.851,17.399 9.924,22.538 C5.997,27.677 14.919,68.994 14.919,68.994 L14.919,68.994 Z" id="path80248" stroke="#FFFFFF" fill="#FFFFFF" fill-rule="nonzero"></path>
                <path d="M13.782,63.813 C13.782,71.108 15.059,74.941 21.112,81.099 C22.871,83.792 25.494,84.323 23.352,89.654 C17.683,93.301 17.557,100.793 17.557,100.793 C15.802,106.011 19.573,111.903 19.573,111.903 C44.137,115.55 76.052,115.563 101.751,112.282 C101.751,112.282 105.147,107.78 103.897,102.308 C103.897,102.308 104.145,93.933 99.74,90.159 C98.734,83.439 100.824,83.748 103.467,80.044 C107.499,73.886 108.805,72.749 108.805,65.454 C76.681,59.983 45.905,58.341 13.782,63.813 L13.782,63.813 Z" id="path80250" stroke="#FFFFFF" fill="#FFFFFF" fill-rule="nonzero"></path>
                <path d="M122.54,25.408 C122.54,31.235 117.816,35.959 111.989,35.959 C106.162,35.959 101.438,31.235 101.438,25.408 C101.438,19.58 106.162,14.856 111.989,14.856 C117.816,14.856 122.54,19.581 122.54,25.408 Z" id="path80252" stroke="#FFFFFF" stroke-width="0.18960001" fill="#FFFFFF" fill-rule="nonzero" stroke-linecap="round"></path>
                <path d="M21.234,25.299 C21.234,31.127 16.51,35.851 10.683,35.851 C4.857,35.851 0.133,31.127 0.133,25.299 C0.133,19.471 4.857,14.747 10.683,14.747 C16.51,14.747 21.234,19.471 21.234,25.299 Z" id="path80254" stroke="#FFFFFF" stroke-width="0.18960001" fill="#FFFFFF" fill-rule="nonzero" stroke-linecap="round"></path>
                <path d="M16.975,25.47 C16.975,28.858 14.228,31.605 10.84,31.605 C7.452,31.605 4.705,28.858 4.705,25.47 C4.705,22.081 7.452,19.335 10.84,19.335 C14.228,19.335 16.975,22.081 16.975,25.47 Z" id="path80256" stroke="#000000" stroke-width="1.63" fill="#FFFFFF" fill-rule="nonzero" stroke-linecap="round"></path>
                <path d="M71.868,11.409 C71.868,17.237 67.144,21.961 61.317,21.961 C55.491,21.961 50.767,17.237 50.767,11.409 C50.767,5.581 55.491,0.857 61.317,0.857 C67.144,0.857 71.868,5.582 71.868,11.409 Z" id="path80258" stroke="#FFFFFF" stroke-width="0.18960001" fill="#FFFFFF" fill-rule="nonzero" stroke-linecap="round"></path>
                <path d="M67.584,11.666 C67.584,15.054 64.838,17.801 61.45,17.801 C58.061,17.801 55.315,15.054 55.315,11.666 C55.315,8.278 58.061,5.531 61.45,5.531 C64.838,5.53 67.584,8.277 67.584,11.666 Z" id="path80260" stroke="#000000" stroke-width="1.63" fill="#FFFFFF" fill-rule="nonzero" stroke-linecap="round"></path>
                <path d="M118.193,25.47 C118.193,28.858 115.447,31.605 112.059,31.605 C108.67,31.605 105.924,28.858 105.924,25.47 C105.924,22.081 108.67,19.335 112.059,19.335 C115.447,19.334 118.193,22.081 118.193,25.47 Z" id="path80262" stroke="#000000" stroke-width="1.63" fill="#FFFFFF" fill-rule="nonzero" stroke-linecap="round"></path>
                <path d="M45.856,14.692 C45.856,20.519 41.132,25.243 35.306,25.243 C29.479,25.243 24.755,20.519 24.755,14.692 C24.755,8.864 29.479,4.14 35.306,4.14 C41.133,4.141 45.856,8.865 45.856,14.692 Z" id="path80264" stroke="#FFFFFF" stroke-width="0.18960001" fill="#FFFFFF" fill-rule="nonzero" stroke-linecap="round"></path>
                <path d="M41.512,14.733 C41.512,18.122 38.766,20.868 35.378,20.868 C31.989,20.868 29.243,18.121 29.243,14.733 C29.243,11.345 31.989,8.598 35.378,8.598 C38.766,8.598 41.512,11.345 41.512,14.733 Z" id="path80266" stroke="#000000" stroke-width="1.63" fill="#FFFFFF" fill-rule="nonzero" stroke-linecap="round"></path>
                <path d="M98.132,16.208 C98.132,22.035 93.408,26.759 87.582,26.759 C81.755,26.759 77.031,22.035 77.031,16.208 C77.031,10.38 81.755,5.656 87.582,5.656 C93.408,5.656 98.132,10.38 98.132,16.208 Z" id="path80268" stroke="#FFFFFF" stroke-width="0.18960001" fill="#FFFFFF" fill-rule="nonzero" stroke-linecap="round"></path>
                <path d="M93.656,16.267 C93.656,19.656 90.909,22.402 87.521,22.402 C84.133,22.402 81.386,19.655 81.386,16.267 C81.386,12.879 84.133,10.132 87.521,10.132 C90.909,10.132 93.656,12.878 93.656,16.267 Z" id="path80270" stroke="#000000" stroke-width="1.63" fill="#FFFFFF" fill-rule="nonzero" stroke-linecap="round"></path>
                <path d="M20.042,68.416 C46.114,63.814 84.454,63.814 102.857,68.416 L108.992,31.605 L87.521,65.348 L87.521,22.402 L70.651,63.814 L61.45,17.801 L52.248,63.814 L35.379,20.868 L35.379,65.347 L13.908,31.604 L20.042,68.416 L20.042,68.416 Z" id="path80272" stroke="#000000" stroke-width="5" fill="#FFFFFF" fill-rule="nonzero"></path>
                <path d="M20.042,68.416 C20.042,74.551 24.644,74.551 27.71,80.686 C30.777,85.288 30.777,83.753 29.244,91.422 C24.643,94.489 24.643,99.091 24.643,99.091 C20.041,103.693 26.176,106.76 26.176,106.76 C46.114,109.827 76.785,109.827 96.722,106.76 C96.722,106.76 101.324,103.693 96.722,99.091 C96.722,99.091 98.256,94.489 93.656,91.422 C92.122,83.753 92.122,85.287 95.189,80.686 C98.256,74.551 102.857,74.551 102.857,68.416 C76.786,63.814 46.114,63.814 20.042,68.416 L20.042,68.416 Z" id="path80274" stroke="#000000" stroke-width="5" fill="#FFFFFF" fill-rule="nonzero"></path>
                <path d="M27.71,80.686 C38.445,77.619 84.454,77.619 95.189,80.686" id="path80276" stroke="#000000" stroke-width="5" stroke-linecap="round"></path>
                <path d="M29.244,91.422 C47.647,88.355 75.253,88.355 93.656,91.422" id="path80278" stroke="#000000" stroke-width="5" stroke-linecap="round"></path>
                <path d="M24.643,99.091 C39.979,96.024 81.386,96.024 96.722,99.091" id="path80280" stroke="#000000" stroke-width="5" stroke-linecap="round"></path>
            </g>
        </g>
    </g>
</svg>